<?xml version="1.0" encoding="UTF-8"?>
<svg version="1.1" xmlns="http://www.w3.org/2000/svg" width="40" height="40">
<path d="M0 0 C13.2 0 26.4 0 40 0 C40 13.2 40 26.4 40 40 C26.8 40 13.6 40 0 40 C0 26.8 0 13.6 0 0 Z " fill="#000202" transform="translate(0,0)"/>
<path d="M0 0 C1.875 1.0625 1.875 1.0625 3 3 C3.1875 6.6875 3.1875 6.6875 3 10 C4.093125 9.938125 5.18625 9.87625 6.3125 9.8125 C10 10 10 10 11.9375 11 C13.67469943 14.27002246 13.74772253 17.45499406 13 21 C11.55281641 23.38684793 9.99657298 25.00342702 8 27 C6.35 26.67 4.7 26.34 3 26 C2.87625 26.61875 2.7525 27.2375 2.625 27.875 C2 30 2 30 0 32 C-3.5 32.3125 -3.5 32.3125 -7 32 C-9.4294516 28.3558226 -9.16179575 26.28758728 -9 22 C-10.093125 22.04125 -11.18625 22.0825 -12.3125 22.125 C-16 22 -16 22 -19 20 C-19.56810946 14.4325273 -18.36075553 9.3579749 -17 4 C-15.00045254 3.95745644 -12.99958364 3.95919217 -11 4 C-10.67 4.33 -10.34 4.66 -10 5 C-9.71125 4.360625 -9.4225 3.72125 -9.125 3.0625 C-7.02177316 -0.79341588 -4.05573867 -0.33108071 0 0 Z " fill="#0F7387" transform="translate(23,3)"/>
<path d="M0 0 C1.98 0 3.96 0 6 0 C4.68 1.32 3.36 2.64 2 4 C2.33 4.99 2.66 5.98 3 7 C4.32 7 5.64 7 7 7 C7.33 8.32 7.66 9.64 8 11 C9.216875 11.185625 10.43375 11.37125 11.6875 11.5625 C15.31741909 12.43290689 16.8603871 13.57281445 19 16.625 C19.66 17.73875 20.32 18.8525 21 20 C24.60992379 19.34414811 24.60992379 19.34414811 28 18 C27.25 19.9375 27.25 19.9375 26 22 C24 22.8125 24 22.8125 22 23 C21.34 22.67 20.68 22.34 20 22 C19.87625 22.61875 19.7525 23.2375 19.625 23.875 C19 26 19 26 17 28 C13.5 28.3125 13.5 28.3125 10 28 C7.5705484 24.3558226 7.83820425 22.28758728 8 18 C6.906875 18.04125 5.81375 18.0825 4.6875 18.125 C1 18 1 18 -2 16 C-2.56810946 10.4325273 -1.36075553 5.3579749 0 0 Z " fill="#6DACA3" transform="translate(6,7)"/>
<path d="M0 0 C1.32 0 2.64 0 4 0 C5.39699026 2.79398052 5.60871135 5.53923715 6.0625 8.625 C6.23910156 9.81351563 6.41570313 11.00203125 6.59765625 12.2265625 C6.73042969 13.14179688 6.86320312 14.05703125 7 15 C9.97 15.33 12.94 15.66 16 16 C15.25 20.75 15.25 20.75 13 23 C10.625 22.9375 10.625 22.9375 8 22 C4 17.78378378 4 17.78378378 4 15 C1.36 14.67 -1.28 14.34 -4 14 C-4.33 12.35 -4.66 10.7 -5 9 C-4.67 9.66 -4.34 10.32 -4 11 C-3.01 11 -2.02 11 -1 11 C-1.01160156 10.28972656 -1.02320313 9.57945313 -1.03515625 8.84765625 C-1.04869141 7.46900391 -1.04869141 7.46900391 -1.0625 6.0625 C-1.07410156 5.14597656 -1.08570313 4.22945312 -1.09765625 3.28515625 C-1 1 -1 1 0 0 Z " fill="#020505" transform="translate(18,5)"/>
<path d="M0 0 C4.67109635 1.64119601 4.67109635 1.64119601 6.375 3.5 C8.09131593 5.32678322 8.09131593 5.32678322 11.5625 5.875 C15 7 15 7 16.5625 9.25 C17.11077272 12.69628569 16.33287732 14.81590418 15 18 C13.35 17.67 11.7 17.34 10 17 C10 13.7 10 10.4 10 7 C6.7 7 3.4 7 0 7 C-1.125 2.25 -1.125 2.25 0 0 Z " fill="#040707" transform="translate(7,15)"/>
<path d="M0 0 C0.33 1.32 0.66 2.64 1 4 C2.258125 3.938125 3.51625 3.87625 4.8125 3.8125 C7.33113951 3.83478885 8.72995606 3.86497803 11 5 C12.63983879 8.27967758 12.17845638 11.37138689 12 15 C11.01 15.495 11.01 15.495 10 16 C10 14.68 10 13.36 10 12 C7.03 12 4.06 12 1 12 C0.67 10.68 0.34 9.36 0 8 C1.32 8 2.64 8 4 8 C4 8.99 4 9.98 4 11 C5.98 11 7.96 11 10 11 C9.67 9.68 9.34 8.36 9 7 C6.03 6.67 3.06 6.34 0 6 C0 4.02 0 2.04 0 0 Z " fill="#0A88A4" transform="translate(24,9)"/>
<path d="M0 0 C1.98 0 3.96 0 6 0 C4.68 1.32 3.36 2.64 2 4 C2.33 4.99 2.66 5.98 3 7 C4.32 7 5.64 7 7 7 C7.33 8.32 7.66 9.64 8 11 C10.64 11.66 13.28 12.32 16 13 C15.67 13.66 15.34 14.32 15 15 C7.25 13.375 7.25 13.375 5 10 C1.94570927 8.78715124 1.94570927 8.78715124 -1 8 C-0.67 5.36 -0.34 2.72 0 0 Z " fill="#4C7771" transform="translate(6,7)"/>
<path d="M0 0 C1.32 0 2.64 0 4 0 C4.33 0.66 4.66 1.32 5 2 C6.65 2 8.3 2 10 2 C10.33 2.66 10.66 3.32 11 4 C4.73 4 -1.54 4 -8 4 C-8 3.01 -8 2.02 -8 1 C-5.36 1.33 -2.72 1.66 0 2 C0 1.34 0 0.68 0 0 Z " fill="#094C59" transform="translate(18,35)"/>
<path d="M0 0 C0.99 0.33 1.98 0.66 3 1 C3 1.99 3 2.98 3 4 C5.64 4 8.28 4 11 4 C10.67 5.65 10.34 7.3 10 9 C9.67 7.68 9.34 6.36 9 5 C6.03 5 3.06 5 0 5 C-0.33 3.68 -0.66 2.36 -1 1 C-0.67 0.67 -0.34 0.34 0 0 Z " fill="#598F88" transform="translate(25,16)"/>
<path d="M0 0 C0.721875 0.845625 1.44375 1.69125 2.1875 2.5625 C4.71922674 5.32249121 4.71922674 5.32249121 7.6875 4.875 C9.97998132 4.05240185 9.97998132 4.05240185 12 3 C11.25 4.9375 11.25 4.9375 10 7 C8 7.8125 8 7.8125 6 8 C5.34 7.67 4.68 7.34 4 7 C3.67 7.99 3.34 8.98 3 10 C2.01 6.7 1.02 3.4 0 0 Z " fill="#4C7871" transform="translate(22,22)"/>
<path d="M0 0 C0.66 0.66 1.32 1.32 2 2 C1.625 4.625 1.625 4.625 1 7 C-0.32 6.67 -1.64 6.34 -3 6 C-3 4.68 -3 3.36 -3 2 C-2.01 1.34 -1.02 0.68 0 0 Z " fill="#040706" transform="translate(11,8)"/>
<path d="M0 0 C1.98 0 3.96 0 6 0 C6.33 1.32 6.66 2.64 7 4 C5.02 4 3.04 4 1 4 C0.67 2.68 0.34 1.36 0 0 Z " fill="#030A0B" transform="translate(27,16)"/>
</svg>
