<?xml version="1.0" encoding="UTF-8"?>
<svg version="1.1" xmlns="http://www.w3.org/2000/svg" width="100" height="100">
<path d="M0 0 C33 0 66 0 100 0 C100 33 100 66 100 100 C67 100 34 100 0 100 C0 67 0 34 0 0 Z " fill="#000202" transform="translate(0,0)"/>
<path d="M0 0 C0.7528125 -0.0103125 1.505625 -0.020625 2.28125 -0.03125 C5.37649103 0.70986405 6.5056058 2.0470294 8.5 4.5 C8.95410156 7.15722656 8.95410156 7.15722656 8.890625 10.140625 C8.87128906 11.74550781 8.87128906 11.74550781 8.8515625 13.3828125 C8.81804688 14.49398438 8.78453125 15.60515625 8.75 16.75 C8.73195313 17.87664063 8.71390625 19.00328125 8.6953125 20.1640625 C8.64820222 22.94356896 8.58243361 25.7213534 8.5 28.5 C9.49 28.5 10.48 28.5 11.5 28.5 C11.35691406 29.43972656 11.35691406 29.43972656 11.2109375 30.3984375 C11.04464844 31.62433594 11.04464844 31.62433594 10.875 32.875 C10.75898437 33.68710937 10.64296875 34.49921875 10.5234375 35.3359375 C10.51570313 36.05007812 10.50796875 36.76421875 10.5 37.5 C13.0824426 40.0824426 14.53100992 39.93639234 18.12890625 40.31640625 C19.24587891 40.44080078 20.36285156 40.56519531 21.51367188 40.69335938 C22.68478516 40.81517578 23.85589844 40.93699219 25.0625 41.0625 C27.3767073 41.31004274 29.69053736 41.56114718 32.00390625 41.81640625 C33.03330322 41.92412354 34.0627002 42.03184082 35.12329102 42.14282227 C37.5 42.5 37.5 42.5 38.5 43.5 C38.37859539 50.42006265 36.23392215 54.48345563 31.5 59.5 C28.374651 61.583566 26.41714229 62.12117065 22.67578125 61.984375 C16.23737586 60.55104956 12.45633996 54.70183035 9.09375 49.45581055 C4.5 42.02890625 4.5 42.02890625 4.5 39.5 C-0.24571795 38.0443309 -5.16588485 38.22694047 -10.08984375 38.07421875 C-14.04888527 37.40757602 -15.76181193 36.40740194 -18.5 33.5 C-19.28390911 30.59460258 -18.84623323 28.56663719 -18.5 25.5 C-17.84 24.84 -17.18 24.18 -16.5 23.5 C-16.3328049 20.89613785 -16.3328049 20.89613785 -16.5 18 C-16.625 15.03125 -16.625 15.03125 -16.5 12.5 C-15.84 11.84 -15.18 11.18 -14.5 10.5 C-13.52448491 13.42654527 -13.33521912 15.44654996 -13.3125 18.5 C-13.29832031 19.36625 -13.28414062 20.2325 -13.26953125 21.125 C-13.5 23.5 -13.5 23.5 -15.5 26.5 C-13.19 26.83 -10.88 27.16 -8.5 27.5 C-8.52094727 26.82420898 -8.54189453 26.14841797 -8.56347656 25.45214844 C-8.64671643 22.38491746 -8.69868466 19.31792418 -8.75 16.25 C-8.78351562 15.18652344 -8.81703125 14.12304688 -8.8515625 13.02734375 C-8.86445312 12.00253906 -8.87734375 10.97773438 -8.890625 9.921875 C-8.91157227 8.97924805 -8.93251953 8.03662109 -8.95410156 7.06542969 C-8.0785496 2.11903185 -4.85321041 -0.06648233 0 0 Z " fill="#010303" transform="translate(49.5,7.5)"/>
<path d="M0 0 C3.08718209 1.24800978 4.61586417 3.35198472 6.5 6.02734375 C8.49505326 8.37627535 10.20906923 9.52532566 13.01953125 10.81640625 C16.62984987 11.05791883 16.62984987 11.05791883 20.45703125 10.94140625 C27.17192046 11.11620603 27.17192046 11.11620603 30.0859375 13.5234375 C31.6036972 15.88485654 32.80236121 18.28785796 34.01953125 20.81640625 C35.21692858 22.62945886 36.44659517 24.42159806 37.70703125 26.19140625 C38.26777344 27.00351562 38.82851563 27.815625 39.40625 28.65234375 C40.92748215 30.82493458 40.92748215 30.82493458 42.74609375 32.4375 C43.16632813 32.89253906 43.5865625 33.34757812 44.01953125 33.81640625 C43.70703125 36.50390625 43.70703125 36.50390625 43.01953125 38.81640625 C42.68953125 38.81640625 42.35953125 38.81640625 42.01953125 38.81640625 C41.77203125 37.90890625 41.52453125 37.00140625 41.26953125 36.06640625 C39.97971783 32.71289136 38.69982083 31.13932389 36.01953125 28.81640625 C36.00535156 29.55246094 35.99117187 30.28851563 35.9765625 31.046875 C35.7435304 35.81458582 35.58487391 38.96839226 32.89453125 43.00390625 C29.20641572 45.32902256 27.30573262 45.58179935 23.01953125 44.81640625 C20.3203125 43.015625 20.3203125 43.015625 18.01953125 39.81640625 C17.40478767 35.861581 17.54860317 31.99385648 17.70703125 28.00390625 C17.72958984 26.92947266 17.75214844 25.85503906 17.77539062 24.74804688 C17.83417527 22.10273775 17.91629168 19.46029212 18.01953125 16.81640625 C17.34897705 16.84259033 16.67842285 16.86877441 15.98754883 16.89575195 C12.93594997 16.99997863 9.88472583 17.06481248 6.83203125 17.12890625 C5.77693359 17.17080078 4.72183594 17.21269531 3.63476562 17.25585938 C-4.18479996 17.37919637 -4.18479996 17.37919637 -8.18359375 14.55078125 C-10.90254057 10.41325348 -10.67678441 8.6906159 -9.98046875 3.81640625 C-7.49945209 -0.42199721 -4.77466221 -0.84154529 0 0 Z " fill="#010202" transform="translate(22.98046875,36.18359375)"/>
<path d="M0 0 C4.93727735 2.33398566 7.40818953 5.24198161 10 10 C10.45896332 12.98203625 10.3825467 15.86720958 10.25 18.875 C10.23195312 19.65875 10.21390625 20.4425 10.1953125 21.25 C10.14855148 23.16720189 10.07682003 25.08376715 10 27 C10.99 26.95359375 11.98 26.9071875 13 26.859375 C27.24690388 26.38862656 27.24690388 26.38862656 33 31 C36.83580969 35.13087197 38.1338823 37.55718057 38.0625 43.125 C38.05347656 44.03507812 38.04445312 44.94515625 38.03515625 45.8828125 C38.02355469 46.58148438 38.01195312 47.28015625 38 48 C37.401875 47.690625 36.80375 47.38125 36.1875 47.0625 C33.91043228 45.89790296 33.91043228 45.89790296 31 45 C30.690625 43.88625 30.38125 42.7725 30.0625 41.625 C28.89978211 37.65808012 28.44676975 36.99198852 25 35 C22.49640263 34.50142674 22.49640263 34.50142674 19.796875 34.48828125 C18.32734375 34.43510742 18.32734375 34.43510742 16.828125 34.38085938 C15.30445312 34.34702148 15.30445312 34.34702148 13.75 34.3125 C12.71875 34.27833984 11.6875 34.24417969 10.625 34.20898438 C8.08344188 34.12661907 5.54222374 34.05743166 3 34 C2.98541748 33.31897217 2.97083496 32.63794434 2.95581055 31.9362793 C2.88137304 28.85277785 2.78469917 25.77036433 2.6875 22.6875 C2.66494141 21.61564453 2.64238281 20.54378906 2.61914062 19.43945312 C2.5659668 17.89741211 2.5659668 17.89741211 2.51171875 16.32421875 C2.48553467 15.37635498 2.45935059 14.42849121 2.43237305 13.4519043 C1.93258929 10.61772683 1.2840594 9.69886703 -1 8 C-3.17495081 7.52692544 -3.17495081 7.52692544 -5.5 7.625 C-6.66015625 7.61339844 -6.66015625 7.61339844 -7.84375 7.6015625 C-10.57891731 8.10697385 -11.30803224 8.81075987 -13 11 C-13.5040817 13.50873159 -13.5040817 13.50873159 -13.51171875 16.32421875 C-13.54716797 17.35224609 -13.58261719 18.38027344 -13.61914062 19.43945312 C-13.65297852 21.04723633 -13.65297852 21.04723633 -13.6875 22.6875 C-13.72166016 23.77095703 -13.75582031 24.85441406 -13.79101562 25.97070312 C-13.8735456 28.6470322 -13.94267937 31.32303159 -14 34 C-16.64 34 -19.28 34 -22 34 C-21.51080078 33.16662109 -21.51080078 33.16662109 -21.01171875 32.31640625 C-19.85332227 29.66417029 -19.76470573 27.81819082 -19.8125 24.9375 C-19.81894531 24.08027344 -19.82539062 23.22304688 -19.83203125 22.33984375 C-19.91409966 19.84522032 -19.91409966 19.84522032 -21 17 C-21.38981277 12.8679846 -21.27518905 10.53979391 -19.375 6.8125 C-13.72900825 0.12645714 -8.50011428 -1.24144739 0 0 Z " fill="#0A87A2" transform="translate(55,1)"/>
<path d="M0 0 C3.16115776 1.36983503 3.9927092 1.9890638 6 5 C5.505 5.33 5.01 5.66 4.5 6 C2.56891392 8.57478144 2.59505875 10.81096724 2.50390625 13.96484375 C3.2257036 16.92591791 4.67391375 18.07402125 7 20 C9.59415665 20.63529648 9.59415665 20.63529648 12.421875 20.609375 C13.44667969 20.64160156 14.47148437 20.67382812 15.52734375 20.70703125 C16.59082031 20.72121094 17.65429688 20.73539063 18.75 20.75 C19.82894531 20.77964844 20.90789063 20.80929688 22.01953125 20.83984375 C24.67976244 20.91046936 27.33912102 20.96320196 30 21 C30.01401855 22.01368652 30.01401855 22.01368652 30.02832031 23.04785156 C30.08207301 26.1159711 30.16570992 29.18257387 30.25 32.25 C30.26417969 33.31347656 30.27835938 34.37695312 30.29296875 35.47265625 C30.32519531 36.49746094 30.35742188 37.52226563 30.390625 38.578125 C30.41157227 39.52075195 30.43251953 40.46337891 30.45410156 41.43457031 C31.15698022 44.7377228 32.35776292 45.94939684 35 48 C38.5 48.66666667 38.5 48.66666667 42 48 C44.90189906 45.80791798 45.88242398 44.58185056 46.609375 40.984375 C46.65578125 39.91703125 46.7021875 38.8496875 46.75 37.75 C46.83507813 36.13351563 46.83507813 36.13351563 46.921875 34.484375 C46.96054688 33.25460938 46.96054688 33.25460938 47 32 C53.73858921 36.69294606 53.73858921 36.69294606 54.6875 41.4375 C53.69854433 46.56208849 51.8846321 50.23315741 48 53.875 C43.12660564 56.61628433 37.75654902 56.72195331 32.375 55.3125 C27.53009603 52.63505307 24.59395936 49.26511464 23 44 C22.86239278 41.19006055 22.80988427 38.48998076 22.875 35.6875 C22.88402344 34.94693359 22.89304687 34.20636719 22.90234375 33.44335938 C22.92575787 31.62876533 22.96162385 29.81433929 23 28 C21.84242187 28.04640625 20.68484375 28.0928125 19.4921875 28.140625 C17.95315094 28.17816248 16.4140863 28.21456051 14.875 28.25 C14.11445313 28.28351562 13.35390625 28.31703125 12.5703125 28.3515625 C7.20044567 28.44414641 4.2271928 27.60230343 0 24 C-2.88932263 21.14920167 -3.89612138 19.65993478 -4.53125 15.625 C-4.5209375 14.42875 -4.510625 13.2325 -4.5 12 C-4.5103125 10.80375 -4.520625 9.6075 -4.53125 8.375 C-3.91916508 4.48646052 -2.68454662 2.81238217 0 0 Z " fill="#76B9AF" transform="translate(11,32)"/>
<path d="M0 0 C3.96271788 0.44030199 6.75022313 1.71637301 10 4 C13.38558575 9.07837863 13.29242232 14.0540795 13 20 C12.34 20.66 11.68 21.32 11 22 C10.52786327 26.06095958 10.52786327 26.06095958 11 30 C13.35762334 32.55505978 14.84550403 32.97941268 18.3125 33.44140625 C19.529375 33.48136719 20.74625 33.52132812 22 33.5625 C29.4825916 33.82407365 29.4825916 33.82407365 33 36 C34.27685547 37.61645508 34.27685547 37.61645508 35.3671875 39.51953125 C35.77839844 40.21240234 36.18960938 40.90527344 36.61328125 41.61914062 C37.44741969 43.06919862 38.28076693 44.51971207 39.11328125 45.97070312 C42.09313236 50.98817829 45.24110818 55.90563909 51.16015625 57.62890625 C54.47589957 57.51316162 56.83328247 57.09093683 59.75 55.5 C64.04604076 50.72662138 66.11856416 46.42697244 66 40 C65.25838623 39.92483154 64.51677246 39.84966309 63.75268555 39.7722168 C60.39604778 39.42427103 57.04192555 39.05613835 53.6875 38.6875 C52.52025391 38.56955078 51.35300781 38.45160156 50.15039062 38.33007812 C49.03212891 38.20439453 47.91386719 38.07871094 46.76171875 37.94921875 C45.73006592 37.83924561 44.69841309 37.72927246 43.63549805 37.6159668 C40.76689374 36.94551857 39.71780277 36.35805832 38 34 C37.57177975 31.14519831 37.59340416 29.65507108 39.125 27.1875 C41.87155972 25.44801218 43.81846974 25.60230872 47 26 C48.875 27.125 48.875 27.125 50 29 C50.04510131 30.9994914 50.04876598 33.00059462 50 35 C51.03640625 35.04898438 52.0728125 35.09796875 53.140625 35.1484375 C54.51044208 35.22349597 55.88023248 35.29904247 57.25 35.375 C57.93191406 35.4059375 58.61382812 35.436875 59.31640625 35.46875 C66.50450144 35.88747399 66.50450144 35.88747399 69 38 C70.19062764 41.57188293 70.17083713 43.49519554 68.9609375 47.0703125 C68.17589844 48.58238281 68.17589844 48.58238281 67.375 50.125 C66.86710937 51.13820312 66.35921875 52.15140625 65.8359375 53.1953125 C63.44977565 56.8405555 60.96238147 59.2479925 56.859375 60.8203125 C51.16391298 61.64299035 47.73682242 60.51415357 43.13671875 57.078125 C38.38415016 52.45588279 35.32396487 46.51702086 32.26171875 40.6953125 C30.19837063 37.66057771 30.19837063 37.66057771 26.5390625 37.3359375 C25.24742188 37.34882812 23.95578125 37.36171875 22.625 37.375 C16.70772359 37.41057481 13.64196607 36.7622932 9 33 C7.53125 31.3671875 7.53125 31.3671875 6.5 29.875 C4.27881951 26.80692737 4.27881951 26.80692737 1.125 26.125 C-3.9065452 24.31364373 -7.6172184 19.76556319 -10 15 C-9.94921875 12.6875 -9.94921875 12.6875 -9.6875 10 C-9.60886719 9.113125 -9.53023437 8.22625 -9.44921875 7.3125 C-9 5 -9 5 -7 3 C-4.875 3.375 -4.875 3.375 -3 4 C-3.33 5.65 -3.66 7.3 -4 9 C-4.99 9.33 -5.98 9.66 -7 10 C-6.72222919 14.58321839 -4.6682971 17.31330129 -1.6875 20.609375 C0.05741488 22.27973788 0.05741488 22.27973788 3.1875 22.5625 C6.19150809 22.14731391 6.19150809 22.14731391 9 20 C9.40280618 17.99902655 9.40280618 17.99902655 9.25 15.75 C9.22421875 14.95207031 9.1984375 14.15414063 9.171875 13.33203125 C8.9640293 10.51194302 8.56813824 7.7696739 8 5 C5.36 5.33 2.72 5.66 0 6 C-0.38218767 4.34385343 -0.71395102 2.67542976 -1 1 C-0.67 0.67 -0.34 0.34 0 0 Z " fill="#6EADA4" transform="translate(21,11)"/>
<path d="M0 0 C1.875 1.125 1.875 1.125 3 3 C3 4.98 3 6.96 3 9 C7.29 9.66 11.58 10.32 16 11 C16 11.33 16 11.66 16 12 C-4.40869695 12.28389223 -4.40869695 12.28389223 -7.71875 9.61328125 C-9 8 -9 8 -9.375 5.5 C-9 3 -9 3 -7.875 1.1875 C-5.12844028 -0.55198782 -3.18153026 -0.39769128 0 0 Z " fill="#76B9AF" transform="translate(68,37)"/>
<path d="M0 0 C3 1 3 1 5 2 C6.32 2 7.64 2 9 2 C9 5.11257569 8.82638376 7.10765685 8 10 C5.87527424 10.05386629 3.75016348 10.09273071 1.625 10.125 C-0.15003906 10.15980469 -0.15003906 10.15980469 -1.9609375 10.1953125 C-5 10 -5 10 -7 8 C-6.625 5.875 -6.625 5.875 -6 4 C-5.01 4.33 -4.02 4.66 -3 5 C-3.66 5 -4.32 5 -5 5 C-5 5.99 -5 6.98 -5 8 C-4.01 8 -3.02 8 -2 8 C-2 6.02 -2 4.04 -2 2 C-1.34 2 -0.68 2 0 2 C0 1.34 0 0.68 0 0 Z " fill="#064D5D" transform="translate(48,88)"/>
<path d="M0 0 C3.96271788 0.44030199 6.75022313 1.71637301 10 4 C13.42724441 9.14086661 13.1015597 14.00797796 13 20 C12.01 20 11.02 20 10 20 C9.34 15.05 8.68 10.1 8 5 C5.36 5.33 2.72 5.66 0 6 C-0.38218767 4.34385343 -0.71395102 2.67542976 -1 1 C-0.67 0.67 -0.34 0.34 0 0 Z " fill="#70B0A7" transform="translate(21,11)"/>
<path d="M0 0 C0.61875 0.804375 1.2375 1.60875 1.875 2.4375 C4.51796326 5.62460275 5.14908691 5.91735736 9.2578125 6.31640625 C10.53398438 6.39761719 11.81015625 6.47882812 13.125 6.5625 C14.40632813 6.64628906 15.68765625 6.73007812 17.0078125 6.81640625 C18.48894531 6.90728516 18.48894531 6.90728516 20 7 C19.67 7.99 19.34 8.98 19 10 C7.33806566 10.62289264 7.33806566 10.62289264 2.375 8.3125 C0.02113486 6.02057868 -1.53406557 3.93186885 -3 1 C-2.01 0.67 -1.02 0.34 0 0 Z " fill="#68A49B" transform="translate(30,38)"/>
<path d="M0 0 C3 1 3 1 5 3 C5.66 2.01 6.32 1.02 7 0 C7.66 0 8.32 0 9 0 C9 2.64 9 5.28 9 8 C8.34 8 7.68 8 7 8 C6.67 7.34 6.34 6.68 6 6 C5.01 6 4.02 6 3 6 C2.67 6.66 2.34 7.32 2 8 C1.34 8 0.68 8 0 8 C0 5.36 0 2.72 0 0 Z " fill="#07667A" transform="translate(25,90)"/>
<path d="M0 0 C-0.66 2.97 -1.32 5.94 -2 9 C-4.475 8.01 -4.475 8.01 -7 7 C-7 6.34 -7 5.68 -7 5 C-7.66 4.67 -8.32 4.34 -9 4 C-2.25 0 -2.25 0 0 0 Z " fill="#78BCB2" transform="translate(32,31)"/>
<path d="M0 0 C3.3503698 0.57764997 4.68233772 1.58576846 7 4 C9.09989652 5.17574711 9.09989652 5.17574711 11 6 C11 6.66 11 7.32 11 8 C8.875 8.375 8.875 8.375 6 8 C3.70260359 6.25677649 1.73666661 4.30361963 0 2 C0 1.34 0 0.68 0 0 Z " fill="#69A59D" transform="translate(14,29)"/>
<path d="M0 0 C8.26086957 -0.31772575 8.26086957 -0.31772575 11 2 C11.75 5.125 11.75 5.125 12 8 C11.01 7.67 10.02 7.34 9 7 C8.67 6.01 8.34 5.02 8 4 C5.36 3.67 2.72 3.34 0 3 C0 2.01 0 1.02 0 0 Z " fill="#649D95" transform="translate(79,47)"/>
<path d="M0 0 C1.32 0 2.64 0 4 0 C4 3.11257569 3.82638376 5.10765685 3 8 C1.68 8 0.36 8 -1 8 C-1 4.88742431 -0.82638376 2.89234315 0 0 Z " fill="#07697E" transform="translate(53,90)"/>
<path d="M0 0 C3.3125 0.1875 3.3125 0.1875 7 1 C9.34885769 3.87924492 10 5.27472933 10 9 C9.34 9 8.68 9 8 9 C6.66666667 7 5.33333333 5 4 3 C1.89424357 1.16699091 1.89424357 1.16699091 0 0 Z " fill="#73B5AB" transform="translate(47,46)"/>
<path d="M0 0 C0.66 0 1.32 0 2 0 C2 1.32 2 2.64 2 4 C2.66 4 3.32 4 4 4 C4 2.68 4 1.36 4 0 C4.66 0 5.32 0 6 0 C6 1.98 6 3.96 6 6 C4.33388095 6.042721 2.66617115 6.04063832 1 6 C0 5 0 5 -0.0625 2.4375 C-0.041875 1.633125 -0.02125 0.82875 0 0 Z " fill="#076A80" transform="translate(69,92)"/>
<path d="M0 0 C1.98 0.495 1.98 0.495 4 1 C3.67 2.65 3.34 4.3 3 6 C1.68 5.67 0.36 5.34 -1 5 C-0.67 3.35 -0.34 1.7 0 0 Z " fill="#086C83" transform="translate(36,92)"/>
<path d="M0 0 C0.99 0 1.98 0 3 0 C4.6875 2 4.6875 2 6 4 C4.02 4.66 2.04 5.32 0 6 C0 4.02 0 2.04 0 0 Z " fill="#043844" transform="translate(49,92)"/>
<path d="M0 0 C1.32 0 2.64 0 4 0 C4 1.65 4 3.3 4 5 C2.35 5 0.7 5 -1 5 C-0.67 3.35 -0.34 1.7 0 0 Z " fill="#087087" transform="translate(59,92)"/>
<path d="M0 0 C0.33 0 0.66 0 1 0 C1.36923077 5.41538462 1.36923077 5.41538462 -0.5 8.375 C-0.995 8.91125 -1.49 9.4475 -2 10 C-3.39195915 5.82412255 -1.82323219 3.86525224 0 0 Z " fill="#73B4AB" transform="translate(89,52)"/>
<path d="M0 0 C0.66 0 1.32 0 2 0 C5.58757062 3.58757062 5.58757062 3.58757062 7 6 C6.8125 8.875 6.8125 8.875 6 11 C5.67 11 5.34 11 5 11 C4.731875 10.071875 4.46375 9.14375 4.1875 8.1875 C3.06289965 5.1688359 2.29293427 4.0844857 0 2 C0 1.34 0 0.68 0 0 Z " fill="#0D1514" transform="translate(60,64)"/>
<path d="M0 0 C0 2.64 0 5.28 0 8 C-0.99 8 -1.98 8 -3 8 C-3 5.69 -3 3.38 -3 1 C-1 0 -1 0 0 0 Z " fill="#619991" transform="translate(34,23)"/>
<path d="M0 0 C0.99 0.33 1.98 0.66 3 1 C3 2.98 3 4.96 3 7 C2.01 6.67 1.02 6.34 0 6 C-0.38218767 4.34385343 -0.71395102 2.67542976 -1 1 C-0.67 0.67 -0.34 0.34 0 0 Z " fill="#086F85" transform="translate(65,91)"/>
<path d="M0 0 C1.89213369 2.38573379 3.02391783 4.07175348 4 7 C2.68 6.67 1.36 6.34 0 6 C-1.125 2.25 -1.125 2.25 0 0 Z " fill="#6BA79F" transform="translate(57,53)"/>
</svg>
