<?xml version="1.0" encoding="UTF-8"?>
<svg version="1.1" xmlns="http://www.w3.org/2000/svg" width="40" height="40">
<path d="M0 0 C13.2 0 26.4 0 40 0 C40 13.2 40 26.4 40 40 C26.8 40 13.6 40 0 40 C0 26.8 0 13.6 0 0 Z " fill="#FCFDFD" transform="translate(0,0)"/>
<path d="M0 0 C1.875 1.0625 1.875 1.0625 3 3 C3.1875 6.6875 3.1875 6.6875 3 10 C4.093125 9.938125 5.18625 9.87625 6.3125 9.8125 C10 10 10 10 11.734375 11.23828125 C13.78769678 14.09645446 13.07358468 16.42704646 12.59375 19.76953125 C11.77463439 22.84660372 10.2283412 24.7716588 8 27 C6.35 26.67 4.7 26.34 3 26 C2.87625 26.5775 2.7525 27.155 2.625 27.75 C1.99351176 30.02335767 1.11141809 31.9253529 0 34 C1.65 34 3.3 34 5 34 C5.33 34.66 5.66 35.32 6 36 C-0.27 36 -6.54 36 -13 36 C-13 35.01 -13 34.02 -13 33 C-10.36 33.33 -7.72 33.66 -5 34 C-5 33.34 -5 32.68 -5 32 C-5.99 31.67 -6.98 31.34 -8 31 C-9.4783226 28.04335481 -9.06032783 25.25770263 -9 22 C-10.093125 22.061875 -11.18625 22.12375 -12.3125 22.1875 C-16 22 -16 22 -17.9375 20.875 C-20.81601866 15.7952612 -18.32351685 9.31770162 -17 4 C-15.00045254 3.95745644 -12.99958364 3.95919217 -11 4 C-10.67 4.33 -10.34 4.66 -10 5 C-9.71125 4.360625 -9.4225 3.72125 -9.125 3.0625 C-7.02177316 -0.79341588 -4.05573867 -0.33108071 0 0 Z " fill="#F9FCFC" transform="translate(23,3)"/>
<path d="M0 0 C0.66 0 1.32 0 2 0 C2 1.98 2 3.96 2 6 C5.3 6.33 8.6 6.66 12 7 C12.33 10.3 12.66 13.6 13 17 C14.32 17 15.64 17 17 17 C17.74926071 13.33694766 18.2380014 10.57644848 17 7 C17.721875 7.845625 18.44375 8.69125 19.1875 9.5625 C21.71922674 12.32249121 21.71922674 12.32249121 24.6875 11.875 C26.97998132 11.05240185 26.97998132 11.05240185 29 10 C28.25 11.9375 28.25 11.9375 27 14 C25 14.8125 25 14.8125 23 15 C22.34 14.67 21.68 14.34 21 14 C20.87625 14.5775 20.7525 15.155 20.625 15.75 C19.99351176 18.02335767 19.11141809 19.9253529 18 22 C19.65 22 21.3 22 23 22 C23.33 22.66 23.66 23.32 24 24 C17.73 24 11.46 24 5 24 C5 23.01 5 22.02 5 21 C7.64 21.33 10.28 21.66 13 22 C13 21.34 13 20.68 13 20 C12.01 19.67 11.02 19.34 10 19 C8.5216774 16.04335481 8.93967217 13.25770263 9 10 C7.906875 10.061875 6.81375 10.12375 5.6875 10.1875 C2 10 2 10 0.0625 8.875 C-1.46154563 6.18550771 -1.26357307 4.03109027 -1 1 C-0.67 0.67 -0.34 0.34 0 0 Z " fill="#88C7BE" transform="translate(5,15)"/>
<path d="M0 0 C1.875 1.0625 1.875 1.0625 3 3 C3.1875 6.6875 3.1875 6.6875 3 10 C4.093125 9.938125 5.18625 9.87625 6.3125 9.8125 C10 10 10 10 11.9375 11.25 C13 13 13 13 13 17 C12.34 17 11.68 17 11 17 C10.67 16.01 10.34 15.02 10 14 C6.7 13.34 3.4 12.68 0 12 C-0.33 8.7 -0.66 5.4 -1 2 C-2.32 2.33 -3.64 2.66 -5 3 C-5.33 6.3 -5.66 9.6 -6 13 C-6.99 13 -7.98 13 -9 13 C-10.81174699 7.9098537 -10.81174699 7.9098537 -11 5 C-7.98286442 0.47429663 -5.39151689 -0.93765511 0 0 Z " fill="#41A7BC" transform="translate(23,3)"/>
<path d="M0 0 C4.67109635 1.64119601 4.67109635 1.64119601 6.375 3.5 C8.09131593 5.32678322 8.09131593 5.32678322 11.5625 5.875 C15 7 15 7 16.5625 9.25 C17.11077272 12.69628569 16.33287732 14.81590418 15 18 C13.35 17.67 11.7 17.34 10 17 C10 13.7 10 10.4 10 7 C6.7 7 3.4 7 0 7 C-1.125 2.25 -1.125 2.25 0 0 Z " fill="#F9FCFC" transform="translate(7,15)"/>
<path d="M0 0 C1.98 0 3.96 0 6 0 C6.66 3.63 7.32 7.26 8 11 C10.64 11.66 13.28 12.32 16 13 C15.67 13.66 15.34 14.32 15 15 C7.25 13.375 7.25 13.375 5 10 C1.94570927 8.78715124 1.94570927 8.78715124 -1 8 C-0.67 5.36 -0.34 2.72 0 0 Z " fill="#ACD8D1" transform="translate(6,7)"/>
<path d="M0 0 C1.258125 -0.04125 2.51625 -0.0825 3.8125 -0.125 C4.52019531 -0.14820313 5.22789063 -0.17140625 5.95703125 -0.1953125 C8 0 8 0 11 2 C11 2.99 11 3.98 11 5 C11.66 5.33 12.32 5.66 13 6 C12.34 7.32 11.68 8.64 11 10 C11 8.68 11 7.36 11 6 C8.03 6 5.06 6 2 6 C1.34 4.02 0.68 2.04 0 0 Z " fill="#8DCAC7" transform="translate(23,15)"/>
<path d="M0 0 C1.32 0 2.64 0 4 0 C4.33 0.66 4.66 1.32 5 2 C6.65 2 8.3 2 10 2 C10.33 2.66 10.66 3.32 11 4 C4.73 4 -1.54 4 -8 4 C-8 3.01 -8 2.02 -8 1 C-5.36 1.33 -2.72 1.66 0 2 C0 1.34 0 0.68 0 0 Z " fill="#83C6D3" transform="translate(18,35)"/>
<path d="M0 0 C0.33 1.32 0.66 2.64 1 4 C2.258125 3.938125 3.51625 3.87625 4.8125 3.8125 C8.71104011 3.81940007 8.71104011 3.81940007 11 5.25 C12 7 12 7 12 11 C11.34 11 10.68 11 10 11 C9.67 10.01 9.34 9.02 9 8 C6.89415562 7.19436362 6.89415562 7.19436362 4.4375 6.8125 C3.61121094 6.65394531 2.78492188 6.49539062 1.93359375 6.33203125 C1.29550781 6.22246094 0.65742188 6.11289063 0 6 C0 4.02 0 2.04 0 0 Z " fill="#1392AE" transform="translate(24,9)"/>
<path d="M0 0 C0.721875 0.845625 1.44375 1.69125 2.1875 2.5625 C4.71922674 5.32249121 4.71922674 5.32249121 7.6875 4.875 C9.97998132 4.05240185 9.97998132 4.05240185 12 3 C11.25 4.9375 11.25 4.9375 10 7 C8 7.8125 8 7.8125 6 8 C5.34 7.67 4.68 7.34 4 7 C3.67 7.99 3.34 8.98 3 10 C2.01 6.7 1.02 3.4 0 0 Z " fill="#ACD7D1" transform="translate(22,22)"/>
<path d="M0 0 C0.66 0.66 1.32 1.32 2 2 C1.625 4.625 1.625 4.625 1 7 C-0.32 6.67 -1.64 6.34 -3 6 C-3 4.68 -3 3.36 -3 2 C-2.01 1.34 -1.02 0.68 0 0 Z " fill="#FAFCFC" transform="translate(11,8)"/>
<path d="M0 0 C1.98 0 3.96 0 6 0 C6.33 1.32 6.66 2.64 7 4 C5.02 4 3.04 4 1 4 C0.67 2.68 0.34 1.36 0 0 Z " fill="#EBF5F7" transform="translate(27,16)"/>
</svg>
